<?xml version="1.0" encoding="UTF-8"?><svg id="a" xmlns="http://www.w3.org/2000/svg" viewBox="0 0 263.74 72.24"><path d="M17.03,44.09c-2.92,0-5.74-.34-8.44-1.02-2.7-.68-4.94-1.6-6.71-2.75l3.01-8.47c1.09,.65,2.31,1.22,3.67,1.71,1.36,.49,2.77,.88,4.23,1.17,1.46,.29,2.91,.43,4.34,.43,2.01,0,3.35-.21,4.03-.64,.68-.42,1.02-.94,1.02-1.56,0-.58-.21-1.04-.64-1.38-.43-.34-1.3-.65-2.63-.92l-6.48-1.33c-3.3-.68-5.77-1.89-7.42-3.62-1.65-1.73-2.47-3.98-2.47-6.73,0-2.45,.66-4.57,1.99-6.38,1.33-1.8,3.2-3.2,5.61-4.21,2.41-1,5.24-1.5,8.47-1.5,2.55,0,4.96,.34,7.24,1.02,2.28,.68,4.13,1.6,5.56,2.75l-3.01,7.96c-1.29-.88-2.78-1.57-4.46-2.07-1.68-.49-3.54-.74-5.58-.74-1.7,0-2.97,.2-3.8,.61-.83,.41-1.25,1-1.25,1.78,0,.48,.24,.92,.71,1.33,.48,.41,1.39,.75,2.75,1.02l6.38,1.27c3.23,.65,5.67,1.84,7.32,3.57,1.65,1.73,2.47,3.96,2.47,6.68,0,2.41-.66,4.52-1.99,6.32-1.33,1.8-3.18,3.2-5.56,4.18-2.38,.99-5.17,1.48-8.36,1.48Z"/><path d="M37.89,43.48V7.52h26.67V15.89h-16.17v5.15h14.94v8.36h-14.94v5.71h16.17v8.36h-26.67Z"/><path d="M63.7,43.48L80.78,7.52h8.92l17.19,35.96h-11.02l-4.28-9.74,4.13,3.06h-20.86l4.08-3.06-4.28,9.74h-10.96Zm21.52-24.73l-5.25,12.6-1.53-2.86h13.72l-1.38,2.86-5.3-12.6h-.25Z"/><path d="M108.12,43.48V7.52h15.25c4.35,0,8.02,.73,10.99,2.19,2.98,1.46,5.23,3.53,6.76,6.2,1.53,2.67,2.29,5.86,2.29,9.56s-.76,6.85-2.29,9.54c-1.53,2.69-3.78,4.77-6.76,6.25-2.98,1.48-6.64,2.22-10.99,2.22h-15.25Zm11.02-8.87h3.57c3.33,0,5.8-.75,7.4-2.24,1.6-1.5,2.4-3.79,2.4-6.88s-.8-5.42-2.4-6.89c-1.6-1.46-4.06-2.19-7.4-2.19h-3.57v18.21Z"/><path d="M160.55,18.64h-6.48v24.84h-3.57V18.64h-3.88v-3.01h3.88v-1.94c0-3.03,.77-5.25,2.32-6.68,1.55-1.43,4.05-2.14,7.52-2.14v3.06c-2.31,0-3.94,.44-4.87,1.33-.94,.88-1.4,2.36-1.4,4.44v1.94h6.48v3.01Z"/><path d="M190.28,15.63v27.85h-3.57v-4.9c-.82,1.73-2.07,3.06-3.77,3.98-1.7,.92-3.6,1.38-5.71,1.38-3.33,0-6.05-1.03-8.16-3.09-2.11-2.06-3.16-5.04-3.16-8.95V15.63h3.52v15.86c0,3.03,.76,5.34,2.27,6.94s3.58,2.4,6.2,2.4,4.83-.85,6.43-2.55c1.6-1.7,2.4-4.2,2.4-7.5V15.63h3.57Z"/><path d="M219.66,18.21c2.11,2.06,3.16,5.04,3.16,8.95v16.32h-3.52v-15.91c0-3.03-.76-5.34-2.27-6.94-1.51-1.6-3.58-2.4-6.2-2.4s-4.83,.85-6.43,2.55c-1.6,1.7-2.4,4.2-2.4,7.5v15.2h-3.57V15.63h3.57v4.74c.88-1.7,2.16-3,3.82-3.9,1.67-.9,3.55-1.35,5.66-1.35,3.33,0,6.05,1.03,8.16,3.09Z"/><path d="M230.82,21.98c1.16-2.16,2.75-3.82,4.77-5,2.02-1.17,4.31-1.76,6.86-1.76s4.66,.6,6.63,1.78c1.97,1.19,3.42,2.74,4.33,4.64V5.74h3.57V43.48h-3.57v-6.22c-.85,1.94-2.24,3.53-4.18,4.77-1.94,1.24-4.22,1.86-6.83,1.86s-4.84-.59-6.86-1.79c-2.02-1.19-3.6-2.87-4.74-5.05-1.14-2.18-1.71-4.69-1.71-7.55s.58-5.36,1.73-7.52Zm21.22,1.66c-.92-1.7-2.17-3.01-3.75-3.93s-3.32-1.38-5.23-1.38-3.74,.44-5.3,1.33c-1.56,.88-2.8,2.17-3.7,3.85-.9,1.68-1.35,3.68-1.35,5.99s.45,4.28,1.35,5.99c.9,1.72,2.13,3.03,3.7,3.93,1.56,.9,3.33,1.35,5.3,1.35s3.65-.46,5.23-1.38,2.83-2.23,3.75-3.93c.92-1.7,1.38-3.67,1.38-5.92s-.46-4.22-1.38-5.92Z"/></svg>